static_grf.mot
version=1
nRows=27
nColumns 19
inDegrees=yes
endheader
time	1_ground_force_vx	1_ground_force_vy	1_ground_force_vz	1_ground_force_px	1_ground_force_py	1_ground_force_pz	1_ground_torque_x	1_ground_torque_y	1_ground_torque_z	2_ground_force_vx	2_ground_force_vy	2_ground_force_vz	2_ground_force_px	2_ground_force_py	2_ground_force_pz	2_ground_torque_x	2_ground_torque_y	2_ground_torque_z
            1.351500	          -11.976272	          462.028891	          -42.424813	           -0.262679	            0.005988	           -0.351675	           -0.058736	            2.265951	           -0.208066	            8.224377	          452.513088	           46.192565	           -0.316283	            0.005473	           -0.734498	           -0.005397	           -0.296959	           -0.030314
            1.352000	          -12.160294	          461.849800	          -42.700266	           -0.262658	            0.005988	           -0.351661	           -0.060361	            2.292534	           -0.211956	            8.316706	          452.882103	           46.099983	           -0.316136	            0.005474	           -0.734661	           -0.005155	           -0.280721	           -0.028575
            1.352500	          -11.884973	          460.407727	          -42.707132	           -0.263008	            0.005989	           -0.352124	           -0.059413	            2.301585	           -0.213494	            7.988736	          452.881087	           46.053194	           -0.316265	            0.005474	           -0.734618	           -0.004585	           -0.259948	           -0.026434
            1.353000	          -11.656330	          461.670191	          -42.839854	           -0.262697	            0.005988	           -0.351829	           -0.058511	            2.317450	           -0.215044	            8.361500	          453.435197	           45.961150	           -0.316033	            0.005475	           -0.734740	           -0.005294	           -0.287082	           -0.029099
            1.353500	          -11.610502	          461.129630	          -42.888147	           -0.262922	            0.005988	           -0.351867	           -0.059436	            2.360606	           -0.219552	            8.504770	          452.698578	           46.099246	           -0.316211	            0.005474	           -0.734745	           -0.005314	           -0.282855	           -0.028804
            1.354000	          -11.884960	          462.209794	          -42.561831	           -0.262851	            0.005988	           -0.351733	           -0.059491	            2.313615	           -0.213045	            8.269774	          452.882604	           45.912290	           -0.316186	            0.005475	           -0.734908	           -0.004405	           -0.241239	           -0.024456
            1.354500	          -11.884763	          461.128200	          -42.566469	           -0.262768	            0.005989	           -0.351957	           -0.058274	            2.261017	           -0.208713	            8.363576	          452.882105	           46.146891	           -0.315967	            0.005474	           -0.734537	           -0.005401	           -0.292449	           -0.029799
            1.355000	          -11.747593	          461.849683	          -42.655430	           -0.262855	            0.005988	           -0.351776	           -0.059483	            2.338558	           -0.215984	            8.174807	          453.250045	           46.054429	           -0.316076	            0.005475	           -0.734698	           -0.004346	           -0.240979	           -0.024486
            1.355500	          -11.976628	          461.488910	          -42.610555	           -0.262709	            0.005989	           -0.352050	           -0.059106	            2.277491	           -0.210287	            8.456653	          453.066249	           46.241364	           -0.316172	            0.005474	           -0.734580	           -0.006295	           -0.337235	           -0.034419
            1.356000	          -12.023025	          462.030455	          -42.791546	           -0.262594	            0.005988	           -0.351873	           -0.059452	            2.284653	           -0.211596	            8.131883	          452.145472	           45.909722	           -0.316241	            0.005474	           -0.734622	           -0.004183	           -0.232593	           -0.023617
            1.356500	          -12.068949	          461.850407	          -42.838057	           -0.262647	            0.005988	           -0.351713	           -0.059975	            2.295105	           -0.212878	            8.316062	          453.066077	           46.147568	           -0.315977	            0.005474	           -0.734494	           -0.005126	           -0.279255	           -0.028444
            1.357000	          -11.655955	          461.489366	          -42.703063	           -0.262622	            0.005989	           -0.352019	           -0.059457	            2.354041	           -0.217827	            8.272576	          452.144808	           46.238159	           -0.316233	            0.005473	           -0.734291	           -0.004895	           -0.267541	           -0.027360
            1.357500	          -11.977003	          461.669735	          -42.747346	           -0.262810	            0.005989	           -0.351905	           -0.060072	            2.315537	           -0.214402	            8.176136	          452.881763	           46.053115	           -0.316218	            0.005474	           -0.734785	           -0.005131	           -0.284229	           -0.028903
            1.358000	          -11.976269	          460.767455	          -42.521935	           -0.262682	            0.005989	           -0.351947	           -0.058165	            2.237815	           -0.206517	            8.269294	          453.065238	           46.335300	           -0.316140	            0.005475	           -0.734785	           -0.005379	           -0.294723	           -0.030141
            1.358500	          -11.931241	          461.489706	          -42.794093	           -0.262735	            0.005989	           -0.352028	           -0.059891	            2.316527	           -0.214812	            8.264477	          454.355623	           45.964475	           -0.315665	            0.005477	           -0.734815	           -0.004400	           -0.241904	           -0.024472
            1.359000	          -11.930735	          460.587757	          -42.660386	           -0.262713	            0.005989	           -0.352083	           -0.059858	            2.310834	           -0.214033	            8.269877	          452.881767	           46.146931	           -0.316135	            0.005474	           -0.734453	           -0.005150	           -0.282053	           -0.028740
            1.359500	          -11.518507	          461.309293	          -42.750030	           -0.262470	            0.005989	           -0.351935	           -0.057153	            2.288949	           -0.212119	            8.268609	          453.249546	           46.289029	           -0.316275	            0.005473	           -0.734492	           -0.005123	           -0.280819	           -0.028679
            1.360000	          -11.839213	          461.489134	          -42.656749	           -0.262814	            0.005987	           -0.351647	           -0.058810	            2.292382	           -0.211891	            8.318076	          452.513426	           46.192525	           -0.316158	            0.005474	           -0.734664	           -0.005496	           -0.299007	           -0.030523
            1.360500	          -11.977069	          462.030267	          -42.745800	           -0.262958	            0.005988	           -0.351867	           -0.059010	            2.276382	           -0.210605	            8.221656	          453.250214	           46.054409	           -0.316031	            0.005476	           -0.734906	           -0.004724	           -0.260431	           -0.026462
            1.361000	          -11.747153	          461.308265	          -42.520185	           -0.263100	            0.005989	           -0.351997	           -0.058953	            2.315067	           -0.213387	            8.172813	          453.802467	           46.056400	           -0.316085	            0.005476	           -0.734987	           -0.005487	           -0.304697	           -0.030924
            1.361500	          -12.068479	          462.390191	          -42.606463	           -0.262622	            0.005988	           -0.351821	           -0.059181	            2.267451	           -0.208932	            8.411009	          452.698742	           45.958502	           -0.316205	            0.005474	           -0.734622	           -0.005760	           -0.310012	           -0.031473
            1.362000	          -11.747755	          461.489545	          -42.748688	           -0.262636	            0.005988	           -0.351860	           -0.059090	            2.321252	           -0.215022	            8.220266	          453.618997	           45.914939	           -0.316036	            0.005475	           -0.734864	           -0.005545	           -0.306000	           -0.030973
            1.362500	          -12.114256	          462.029650	          -42.607895	           -0.262650	            0.005988	           -0.351856	           -0.059356	            2.263817	           -0.208767	            8.269815	          452.882269	           46.006147	           -0.316178	            0.005474	           -0.734578	           -0.005119	           -0.280343	           -0.028479
            1.363000	          -11.747641	          461.489348	          -42.702836	           -0.262486	            0.005989	           -0.351975	           -0.057673	            2.265596	           -0.209642	            8.221677	          453.250046	           46.101337	           -0.315947	            0.005475	           -0.734782	           -0.004750	           -0.261868	           -0.026635
            1.363500	          -11.793811	          462.030499	          -42.792115	           -0.262725	            0.005988	           -0.351670	           -0.059568	            2.333610	           -0.216133	            8.268486	          453.250550	           46.007461	           -0.316150	            0.005475	           -0.734907	           -0.005205	           -0.285313	           -0.028961
            1.364000	          -11.747300	          461.488758	          -42.565264	           -0.262801	            0.005989	           -0.352005	           -0.059095	            2.321532	           -0.214126	            8.318035	          452.513761	           46.098669	           -0.316287	            0.005473	           -0.734497	           -0.005140	           -0.279643	           -0.028488
            1.364500	          -11.931013	          461.489313	          -42.702381	           -0.262823	            0.005989	           -0.352018	           -0.059208	            2.290136	           -0.211910	            8.130053	          452.696556	           46.287118	           -0.315877	            0.005475	           -0.734579	           -0.005137	           -0.286058	           -0.029249
